<svg version="1.1" id="Layer_1" xmlns="http://www.w3.org/2000/svg" xmlns:xlink="http://www.w3.org/1999/xlink" x="0px" y="0px"
	 width="100%" viewBox="0 0 192 192" enable-background="new 0 0 192 192" xml:space="preserve">
<path fill="#219CEE" opacity="1.000000" stroke="none" 
	d="
M1.000003,183.000000 
	C1.000000,125.979103 1.000000,68.958206 1.253540,11.811705 
	C3.356538,9.400634 5.147481,7.064221 7.076920,4.848404 
	C8.276159,3.471166 9.685151,2.276571 11.000000,1.000000 
	C68.020897,1.000000 125.041786,1.000000 182.191864,1.230796 
	C185.545044,4.751858 188.762283,8.048859 192.021317,11.304029 
	C192.133957,11.416531 192.664337,11.110793 193.000000,10.999998 
	C193.000000,68.020897 193.000000,125.041786 192.769333,182.191742 
	C189.248367,185.544846 185.951355,188.762177 182.696152,192.021255 
	C182.583618,192.133942 182.889267,192.664307 183.000000,193.000000 
	C125.979103,193.000000 68.958206,193.000000 11.811535,192.746338 
	C9.399882,190.643295 7.062948,188.852554 4.846875,186.923035 
	C3.469910,185.724091 2.276049,184.314850 1.000003,183.000000 
M107.883331,80.006615 
	C108.820679,79.769463 109.763954,79.553368 110.694168,79.290947 
	C112.905830,78.667023 115.111320,78.021172 117.319305,77.384193 
	C117.702065,79.904594 118.664810,82.499046 118.354347,84.930946 
	C117.555115,91.191498 116.009430,97.353745 115.108704,103.605232 
	C114.304039,109.190033 113.554802,114.840126 113.534782,120.464088 
	C113.515877,125.776573 116.256432,127.070229 121.164001,124.996376 
	C125.870811,123.007370 126.158684,119.292984 125.394913,115.032295 
	C123.285416,103.264481 127.638374,93.069046 133.801453,83.628174 
	C135.307724,81.320808 139.137100,80.529999 141.898376,79.041924 
	C142.744598,81.865814 144.428177,84.742744 144.253403,87.501953 
	C143.941101,92.432434 142.596222,97.311432 141.520569,102.176033 
	C140.229980,108.012833 138.430664,113.763046 137.578079,119.655861 
	C137.303604,121.552887 139.329346,123.782730 140.302795,125.860306 
	C142.788834,124.542412 145.429443,123.434860 147.672668,121.786522 
	C148.405762,121.247833 148.341827,119.282639 148.238754,118.002335 
	C147.462952,108.365059 150.834930,99.947899 156.272400,92.379463 
	C157.918961,90.087601 161.101517,88.899277 163.580521,87.205482 
	C163.883621,90.009666 164.851532,92.936798 164.360077,95.594032 
	C163.092651,102.446892 160.894104,109.126892 159.611618,115.977806 
	C158.502716,121.901543 162.309860,125.840668 168.223267,125.032677 
	C175.510712,124.036942 180.765656,119.851021 183.722534,113.153656 
	C184.405548,111.606613 183.823318,109.500977 183.823318,106.929276 
	C179.243027,110.643524 175.338364,113.809883 171.433716,116.976242 
	C170.833084,116.529243 170.232452,116.082245 169.631836,115.635246 
	C170.306213,111.795052 171.091232,107.970284 171.629791,104.111137 
	C172.499405,97.879791 173.746506,91.632698 173.826309,85.379387 
	C173.901581,79.482712 170.224991,76.294525 164.419983,77.089912 
	C160.584000,77.615509 156.979294,79.829117 153.199631,81.315048 
	C152.919174,76.777946 152.684204,71.207077 146.686035,69.258064 
	C138.787277,66.691475 133.389923,70.993530 128.958633,77.197487 
	C125.689713,69.242401 123.088928,67.636559 116.244087,69.008842 
	C110.232224,70.214119 107.184982,73.995842 106.449303,80.207222 
	C100.456161,70.400734 90.013046,66.364960 77.950562,69.193787 
	C69.553009,71.163132 64.013031,75.472427 63.412605,81.128578 
	C65.472809,80.384888 67.213531,79.513107 69.055458,79.137077 
	C74.672577,77.990349 80.331650,76.204750 85.968849,76.224815 
	C92.322495,76.247444 95.307930,80.492638 95.209167,86.854622 
	C95.090996,94.467339 92.530998,97.440262 84.606834,99.573235 
	C83.213875,99.948181 82.021507,101.068344 80.736511,101.844360 
	C82.145599,102.774269 83.448410,104.240814 84.981537,104.544464 
	C93.150154,106.162369 101.573792,102.248688 104.724281,94.462204 
	C106.503548,90.064713 106.383583,84.898773 107.883331,80.006615 
M44.023384,68.351959 
	C37.285660,67.826241 31.778265,69.840141 28.778090,76.297661 
	C25.701250,82.920197 27.816957,88.630348 32.497612,93.644089 
	C34.880177,96.196190 38.023773,98.242477 39.734226,101.156670 
	C41.276104,103.783653 42.058460,107.330681 41.855011,110.383919 
	C41.617794,113.943848 36.679974,116.413063 32.884998,115.640503 
	C28.982300,114.846008 27.975456,111.934990 28.156103,108.507614 
	C28.268845,106.368599 29.066778,104.269211 29.222712,102.127686 
	C29.321005,100.777786 29.127254,98.420334 28.492369,98.205475 
	C27.104361,97.735756 24.696854,97.737526 23.872744,98.627403 
	C21.563282,101.121140 19.070137,103.907784 18.039583,107.036713 
	C14.857624,116.697655 21.194784,124.881134 31.726929,125.400215 
	C41.173073,125.865768 50.586258,120.802025 53.749973,113.553108 
	C57.073803,105.937317 55.003128,99.154694 47.025608,91.420303 
	C46.602058,91.009651 46.344364,90.427933 45.871632,89.719223 
	C51.472733,87.424026 54.601425,83.791191 53.852325,77.703232 
	C53.190334,72.323212 49.994930,69.442215 44.023384,68.351959 
M80.056862,85.483315 
	C80.056862,83.718689 80.056862,81.954063 80.056862,80.189438 
	C79.598732,79.902916 79.140602,79.616386 78.682472,79.329865 
	C76.948799,81.007561 74.678185,82.390938 73.570511,84.411766 
	C67.403954,95.661972 64.434578,107.830826 64.190948,120.634926 
	C64.141006,123.260071 64.209229,126.276993 68.268555,125.983788 
	C71.685097,125.737007 74.789673,125.491371 75.343353,120.829155 
	C76.709763,109.323372 78.433159,97.859985 80.056862,85.483315 
z"/>
<path fill="#000000" opacity="1.000000" stroke="none" 
	d="
M193.000000,10.513433 
	C192.664337,11.110793 192.133957,11.416531 192.021317,11.304029 
	C188.762283,8.048859 185.545044,4.751858 182.660522,1.230796 
	C186.252457,1.000000 189.504913,1.000000 193.000000,1.000000 
	C193.000000,4.006597 193.000000,7.016734 193.000000,10.513433 
z"/>
<path fill="#000000" opacity="1.000000" stroke="none" 
	d="
M183.486572,193.000000 
	C182.889267,192.664307 182.583618,192.133942 182.696152,192.021255 
	C185.951355,188.762177 189.248367,185.544846 192.769333,182.660400 
	C193.000000,186.252457 193.000000,189.504898 193.000000,193.000000 
	C189.993408,193.000000 186.983276,193.000000 183.486572,193.000000 
z"/>
<path fill="#000000" opacity="1.000000" stroke="none" 
	d="
M10.513435,1.000000 
	C9.685151,2.276571 8.276159,3.471166 7.076920,4.848404 
	C5.147481,7.064221 3.356538,9.400634 1.253540,11.343047 
	C1.000000,7.747543 1.000000,4.495087 1.000000,1.000000 
	C4.006597,1.000000 7.016734,1.000000 10.513435,1.000000 
z"/>
<path fill="#000000" opacity="1.000000" stroke="none" 
	d="
M1.000003,183.486572 
	C2.276049,184.314850 3.469910,185.724091 4.846875,186.923035 
	C7.062948,188.852554 9.399882,190.643295 11.342876,192.746338 
	C7.747546,193.000000 4.495092,193.000000 1.000000,193.000000 
	C1.000000,189.993408 1.000000,186.983276 1.000003,183.486572 
z"/>
<path fill="#F7FCFE" opacity="1.000000" stroke="none" 
	d="
M107.237053,80.186829 
	C107.184982,73.995842 110.232224,70.214119 116.244087,69.008842 
	C123.088928,67.636559 125.689713,69.242401 128.958633,77.197487 
	C133.389923,70.993530 138.787277,66.691475 146.686035,69.258064 
	C152.684204,71.207077 152.919174,76.777946 153.199631,81.315048 
	C156.979294,79.829117 160.584000,77.615509 164.419983,77.089912 
	C170.224991,76.294525 173.901581,79.482712 173.826309,85.379387 
	C173.746506,91.632698 172.499405,97.879791 171.629791,104.111137 
	C171.091232,107.970284 170.306213,111.795052 169.631836,115.635246 
	C170.232452,116.082245 170.833084,116.529243 171.433716,116.976242 
	C175.338364,113.809883 179.243027,110.643524 183.823318,106.929276 
	C183.823318,109.500977 184.405548,111.606613 183.722534,113.153656 
	C180.765656,119.851021 175.510712,124.036942 168.223267,125.032677 
	C162.309860,125.840668 158.502716,121.901543 159.611618,115.977806 
	C160.894104,109.126892 163.092651,102.446892 164.360077,95.594032 
	C164.851532,92.936798 163.883621,90.009666 163.580521,87.205490 
	C161.101517,88.899277 157.918961,90.087601 156.272400,92.379463 
	C150.834930,99.947899 147.462952,108.365059 148.238754,118.002335 
	C148.341827,119.282639 148.405762,121.247833 147.672668,121.786522 
	C145.429443,123.434860 142.788834,124.542412 140.302795,125.860306 
	C139.329346,123.782730 137.303604,121.552887 137.578079,119.655861 
	C138.430664,113.763046 140.229980,108.012833 141.520569,102.176033 
	C142.596222,97.311432 143.941101,92.432434 144.253403,87.501953 
	C144.428177,84.742744 142.744598,81.865814 141.898376,79.041916 
	C139.137100,80.529999 135.307724,81.320808 133.801453,83.628174 
	C127.638374,93.069046 123.285416,103.264481 125.394913,115.032295 
	C126.158684,119.292984 125.870811,123.007370 121.164001,124.996376 
	C116.256432,127.070229 113.515877,125.776573 113.534782,120.464088 
	C113.554802,114.840126 114.304039,109.190033 115.108704,103.605232 
	C116.009430,97.353745 117.555115,91.191498 118.354347,84.930946 
	C118.664810,82.499046 117.702065,79.904594 117.319305,77.384186 
	C115.111320,78.021172 112.905830,78.667023 110.694168,79.290947 
	C109.763954,79.553368 108.820679,79.769463 107.526634,80.074219 
	C107.169937,80.141815 107.237053,80.186829 107.237053,80.186829 
z"/>
<path fill="#F8FCFE" opacity="1.000000" stroke="none" 
	d="
M44.424202,68.419144 
	C49.994930,69.442215 53.190334,72.323212 53.852325,77.703232 
	C54.601425,83.791191 51.472733,87.424026 45.871632,89.719223 
	C46.344364,90.427933 46.602058,91.009651 47.025608,91.420303 
	C55.003128,99.154694 57.073803,105.937317 53.749973,113.553108 
	C50.586258,120.802025 41.173073,125.865768 31.726929,125.400215 
	C21.194784,124.881134 14.857624,116.697655 18.039583,107.036713 
	C19.070137,103.907784 21.563282,101.121140 23.872744,98.627403 
	C24.696854,97.737526 27.104361,97.735756 28.492369,98.205475 
	C29.127254,98.420334 29.321005,100.777786 29.222712,102.127686 
	C29.066778,104.269211 28.268845,106.368599 28.156103,108.507614 
	C27.975456,111.934990 28.982300,114.846008 32.884998,115.640503 
	C36.679974,116.413063 41.617794,113.943848 41.855011,110.383919 
	C42.058460,107.330681 41.276104,103.783653 39.734226,101.156670 
	C38.023773,98.242477 34.880177,96.196190 32.497612,93.644089 
	C27.816957,88.630348 25.701250,82.920197 28.778090,76.297661 
	C31.778265,69.840141 37.285660,67.826241 44.424202,68.419144 
M43.281868,86.946747 
	C44.284081,85.443542 45.831059,84.044205 46.142765,82.409348 
	C46.488228,80.597473 46.045525,77.064377 45.351860,76.907463 
	C42.848057,76.341103 40.094318,76.879639 37.434956,77.000946 
	C37.657719,78.886879 37.402786,81.024498 38.228947,82.592514 
	C39.177135,84.392120 41.083466,85.686905 43.281868,86.946747 
z"/>
<path fill="#F7FBFE" opacity="1.000000" stroke="none" 
	d="
M107.144531,80.110397 
	C106.383583,84.898773 106.503548,90.064713 104.724281,94.462204 
	C101.573792,102.248688 93.150154,106.162369 84.981537,104.544464 
	C83.448410,104.240814 82.145599,102.774269 80.736511,101.844360 
	C82.021507,101.068344 83.213875,99.948181 84.606834,99.573235 
	C92.530998,97.440262 95.090996,94.467339 95.209167,86.854622 
	C95.307930,80.492638 92.322495,76.247444 85.968849,76.224815 
	C80.331650,76.204750 74.672577,77.990349 69.055458,79.137077 
	C67.213531,79.513107 65.472809,80.384888 63.412605,81.128578 
	C64.013031,75.472427 69.553009,71.163132 77.950562,69.193787 
	C90.013046,66.364960 100.456161,70.400734 106.843178,80.197021 
	C107.237053,80.186829 107.169937,80.141815 107.144531,80.110397 
z"/>
<path fill="#F7FBFE" opacity="1.000000" stroke="none" 
	d="
M80.034958,85.931435 
	C78.433159,97.859985 76.709763,109.323372 75.343353,120.829155 
	C74.789673,125.491371 71.685097,125.737007 68.268555,125.983788 
	C64.209229,126.276993 64.141006,123.260071 64.190948,120.634926 
	C64.434578,107.830826 67.403954,95.661972 73.570511,84.411766 
	C74.678185,82.390938 76.948799,81.007561 78.682472,79.329865 
	C79.140602,79.616386 79.598732,79.902916 80.056862,80.189438 
	C80.056862,81.954063 80.056862,83.718689 80.034958,85.931435 
z"/>
<path fill="#2EA2EF" opacity="1.000000" stroke="none" 
	d="
M42.927723,87.073868 
	C41.083466,85.686905 39.177135,84.392120 38.228947,82.592514 
	C37.402786,81.024498 37.657719,78.886879 37.434956,77.000946 
	C40.094318,76.879639 42.848057,76.341103 45.351860,76.907463 
	C46.045525,77.064377 46.488228,80.597473 46.142765,82.409348 
	C45.831059,84.044205 44.284081,85.443542 42.927723,87.073868 
z"/>
</svg>